<?xml version="1.0" standalone="no"?>
<!DOCTYPE svg PUBLIC "-//W3C//DTD SVG 20010904//EN"
 "http://www.w3.org/TR/2001/REC-SVG-20010904/DTD/svg10.dtd">
<svg version="1.0" xmlns="http://www.w3.org/2000/svg"
 width="512.000000pt" height="512.000000pt" viewBox="0 0 512.000000 512.000000"
 preserveAspectRatio="xMidYMid meet">

<g transform="translate(0.000000,512.000000) scale(0.100000,-0.100000)"
fill="#000000" stroke="none">
<path d="M2478 4368 c-3 -729 -4 -752 -21 -720 -10 18 -47 70 -82 117 l-65 85
0 385 0 385 -80 0 -80 0 0 -306 c0 -168 -4 -304 -8 -302 -4 2 -42 26 -84 53
l-77 50 0 173 -1 172 -80 0 -80 0 0 -131 c0 -105 -3 -130 -13 -126 -146 56
-320 87 -487 87 -365 0 -689 -137 -943 -399 -233 -240 -358 -530 -374 -866
-12 -257 53 -506 192 -737 l55 -91 0 -564 0 -563 80 0 80 0 2 471 3 470 83
-68 82 -68 0 -567 0 -568 80 0 80 0 0 520 c0 286 3 520 7 520 4 0 42 -14 85
-32 l78 -32 0 -693 0 -693 80 0 80 0 0 670 0 671 93 -7 c50 -4 93 -8 95 -9 2
-2 -1 -38 -7 -80 -33 -233 9 -510 110 -724 143 -306 400 -549 714 -674 257
-103 539 -121 809 -53 645 164 1076 799 985 1451 -6 42 -9 78 -7 80 2 1 45 5
96 9 l92 7 0 -671 0 -670 80 0 80 0 0 693 0 693 78 32 c43 18 81 32 85 32 4 0
7 -234 7 -520 l0 -520 80 0 80 0 0 569 0 569 66 54 c37 29 75 59 85 67 18 13
19 0 19 -458 l0 -471 80 0 80 0 0 563 0 564 55 91 c30 50 66 117 80 147 217
491 117 1063 -253 1447 -261 271 -582 408 -952 408 -146 0 -277 -20 -403 -61
-49 -16 -91 -29 -93 -29 -2 0 -4 59 -4 130 l0 130 -80 0 -80 0 -1 -172 0 -173
-77 -50 c-42 -27 -80 -51 -84 -53 -5 -2 -8 134 -8 302 l0 306 -80 0 -80 0 0
-385 0 -385 -65 -85 c-35 -47 -72 -99 -82 -117 -17 -32 -18 -9 -21 720 l-2
752 -80 0 -80 0 -2 -752z m-908 -267 c406 -92 727 -389 854 -788 13 -43 27
-99 31 -125 l7 -48 -349 0 -349 0 -49 -101 c-28 -55 -53 -103 -56 -105 -3 -2
-62 127 -130 286 -68 159 -127 286 -130 282 -4 -4 -75 -176 -157 -382 -143
-357 -150 -373 -159 -340 -5 19 -59 232 -119 473 -60 240 -111 437 -114 437
-3 0 -76 -142 -163 -315 l-157 -315 -180 0 c-146 0 -180 3 -180 14 0 39 33
192 56 261 58 174 147 317 279 450 181 183 413 299 667 335 93 13 300 3 398
-19z m2370 19 c311 -40 593 -204 781 -452 79 -105 162 -276 195 -404 35 -131
44 -354 20 -491 -82 -474 -464 -855 -940 -938 -49 -8 -110 -15 -137 -15 -46 0
-48 1 -59 38 -39 119 -152 308 -251 417 -214 236 -474 381 -776 431 -117 19
-107 6 -124 163 -22 193 19 419 111 607 215 443 697 706 1180 644z m-3010
-1408 c68 -271 126 -490 130 -485 4 4 83 198 176 431 92 232 171 419 174 415
4 -5 58 -128 121 -276 l114 -267 110 220 110 220 307 0 308 0 0 -22 c-1 -28
-18 -164 -25 -199 -6 -25 -12 -27 -108 -43 -298 -49 -569 -199 -773 -426 -99
-111 -190 -257 -240 -387 l-28 -73 -47 0 c-68 0 -211 27 -298 56 -176 59 -314
145 -452 283 -187 186 -303 419 -334 674 l-7 57 231 0 231 0 82 165 c45 90 85
161 89 157 3 -4 61 -229 129 -500z m1786 -163 c260 -36 507 -165 689 -361 428
-460 410 -1172 -41 -1610 -158 -153 -324 -246 -541 -300 -74 -19 -116 -23
-263 -23 -152 0 -187 3 -265 24 -227 59 -402 158 -558 317 -97 99 -150 174
-212 299 -283 570 -45 1266 529 1545 211 103 439 140 662 109z"/>
<path d="M3505 3424 c-159 -240 -292 -440 -294 -446 -3 -10 578 -888 588 -888
9 1 586 871 586 885 0 13 -576 884 -585 884 -3 0 -135 -196 -295 -435z m655
-404 c0 -3 -63 -26 -140 -52 l-140 -46 0 261 0 262 140 -210 c77 -115 140
-212 140 -215z m-440 160 c0 -189 -3 -250 -12 -250 -31 0 -268 86 -266 96 5
19 262 404 271 404 4 0 7 -112 7 -250z m0 -551 c0 -65 -2 -119 -5 -119 -5 0
-205 296 -205 304 0 3 47 -11 105 -31 l105 -35 0 -119z m364 179 c-17 -29
-187 -284 -195 -293 -5 -5 -9 43 -9 112 l0 121 103 35 c56 20 103 36 105 36 2
1 0 -5 -4 -11z"/>
<path d="M2360 2375 c-82 -18 -168 -49 -245 -88 -65 -32 -170 -101 -180 -117
-4 -6 17 -37 45 -70 l52 -60 48 35 c123 90 323 155 480 155 113 0 250 -32 355
-83 226 -110 382 -300 446 -546 29 -108 28 -287 0 -396 -25 -93 -77 -208 -126
-277 -19 -26 -35 -50 -35 -52 0 -2 28 -27 61 -56 l62 -51 38 53 c240 331 251
782 27 1124 -128 194 -327 342 -555 410 -76 23 -110 27 -248 30 -114 3 -179
-1 -225 -11z"/>
<path d="M2480 2065 l0 -85 -125 0 -125 0 0 -575 0 -574 123 -3 122 -3 3 -83
3 -82 79 0 79 0 3 82 3 83 46 6 c69 10 132 42 181 91 121 121 131 319 23 445
l-34 40 23 22 c13 12 36 45 52 74 26 47 29 61 29 147 0 84 -3 101 -28 147 -51
99 -147 168 -248 180 l-49 6 0 83 0 84 -80 0 -80 0 0 -85z m230 -267 c113 -57
130 -201 32 -276 -35 -26 -39 -27 -194 -30 l-158 -3 0 159 c0 87 3 162 7 165
3 4 65 7 138 7 116 0 136 -3 175 -22z m14 -501 c57 -31 91 -100 81 -162 -8
-58 -61 -120 -114 -135 -20 -6 -94 -10 -166 -8 l-130 3 -3 163 -2 162 147 0
c135 0 152 -2 187 -23z"/>
<path d="M1759 1988 c-290 -400 -239 -959 118 -1298 291 -277 694 -351 1072
-196 71 29 197 104 224 134 17 19 16 22 -33 80 l-51 61 -71 -50 c-199 -137
-473 -176 -708 -100 -272 87 -479 308 -551 586 -24 95 -29 268 -10 360 20 94
68 207 122 290 27 42 49 77 49 79 0 7 -112 96 -121 96 -5 0 -23 -19 -40 -42z"/>
<path d="M2150 4870 l0 -80 80 0 80 0 0 80 0 80 -80 0 -80 0 0 -80z"/>
<path d="M2810 4870 l0 -80 80 0 80 0 0 80 0 80 -80 0 -80 0 0 -80z"/>
<path d="M250 825 l0 -85 80 0 80 0 0 85 0 85 -80 0 -80 0 0 -85z"/>
<path d="M4710 825 l0 -85 80 0 80 0 0 85 0 85 -80 0 -80 0 0 -85z"/>
<path d="M580 495 l0 -85 80 0 80 0 0 85 0 85 -80 0 -80 0 0 -85z"/>
<path d="M4380 495 l0 -85 80 0 80 0 0 85 0 85 -80 0 -80 0 0 -85z"/>
<path d="M910 85 l0 -85 80 0 80 0 0 85 0 85 -80 0 -80 0 0 -85z"/>
<path d="M4050 85 l0 -85 80 0 80 0 0 85 0 85 -80 0 -80 0 0 -85z"/>
</g>
</svg>
